<svg id="Layer_1" data-name="Layer 1" xmlns="http://www.w3.org/2000/svg" xmlns:xlink="http://www.w3.org/1999/xlink" viewBox="0 0 280 180"><defs><style>.cls-1{fill:#fff;}.cls-2{fill:url(#linear-gradient);}.cls-3{fill:url(#linear-gradient-2);}.cls-4{fill:url(#linear-gradient-3);}.cls-5{fill:url(#linear-gradient-4);}.cls-6{fill:url(#linear-gradient-5);}.cls-7{fill:url(#linear-gradient-6);}.cls-8{fill:url(#linear-gradient-7);}.cls-9{fill:url(#linear-gradient-8);}</style><linearGradient id="linear-gradient" x1="123.9" y1="145.85" x2="170.2" y2="145.85" gradientTransform="matrix(1, 0, 0, -1, 0, 182)" gradientUnits="userSpaceOnUse"><stop offset="0" stop-color="#fff"/><stop offset="1" stop-color="#fff" stop-opacity="0.6"/></linearGradient><linearGradient id="linear-gradient-2" x1="163.76" y1="141.89" x2="163.76" y2="95.59" xlink:href="#linear-gradient"/><linearGradient id="linear-gradient-3" x1="119.94" y1="105.99" x2="119.94" y2="152.29" xlink:href="#linear-gradient"/><linearGradient id="linear-gradient-4" x1="159.8" y1="102.03" x2="113.5" y2="102.03" xlink:href="#linear-gradient"/><linearGradient id="linear-gradient-5" x1="480.01" y1="823.9" x2="463.43" y2="840.48" gradientTransform="matrix(0, 1, 1, 0, -681.99, -422.01)" xlink:href="#linear-gradient"/><linearGradient id="linear-gradient-6" x1="-558.12" y1="462.28" x2="-574.7" y2="478.86" gradientTransform="matrix(0, -1, -1, 0, 604.01, -499.99)" xlink:href="#linear-gradient"/><linearGradient id="linear-gradient-7" x1="-218.84" y1="1161.13" x2="-228.86" y2="1171.15" gradientTransform="matrix(-1, 0, 0, 1, -77.98, -1104)" xlink:href="#linear-gradient"/><linearGradient id="linear-gradient-8" x1="142.74" y1="122.95" x2="132.72" y2="132.97" xlink:href="#linear-gradient"/></defs><title>logo-white</title><g id="Logos"><path class="cls-1" d="M14,140.51q0-8.4,3-12.9c2-3,5-4.5,9.1-4.5a11.43,11.43,0,0,1,5.7,1.3,9.83,9.83,0,0,1,3.8,3.5,15,15,0,0,1,2.1,5.5,38.75,38.75,0,0,1,.6,7.2q0,8.4-3,12.9c-2,3-5,4.5-9.2,4.5a10.8,10.8,0,0,1-5.6-1.3,10.58,10.58,0,0,1-3.8-3.5,15,15,0,0,1-2.1-5.5A40.32,40.32,0,0,1,14,140.51Zm4.2,0a30,30,0,0,0,.4,5.3,14.19,14.19,0,0,0,1.3,4.4,7.28,7.28,0,0,0,2.4,3,5.91,5.91,0,0,0,3.8,1.1,6.45,6.45,0,0,0,6.1-3.4c1.3-2.3,1.9-5.8,1.9-10.5a30.76,30.76,0,0,0-.4-5.3,13.41,13.41,0,0,0-1.3-4.4,6.76,6.76,0,0,0-2.5-3,6,6,0,0,0-3.9-1.1,6.39,6.39,0,0,0-6,3.4Q18.2,133.46,18.2,140.51Z"/><path class="cls-1" d="M45.3,141.71v-1.1a6.6,6.6,0,0,0-.1-1.4c0-.5-.1-1-.1-1.5a5.07,5.07,0,0,0-.2-1.3H41.7v-3.1h6.4l.5,3.4h.2a11.18,11.18,0,0,1,3.3-2.8,9.36,9.36,0,0,1,4.9-1.1c3.4,0,6,.9,7.8,2.8s2.6,5,2.6,9.3a15.86,15.86,0,0,1-.9,5.5,11.31,11.31,0,0,1-2.5,4.1,11.09,11.09,0,0,1-4,2.6,13.64,13.64,0,0,1-5.1.9,9.72,9.72,0,0,1-1.8-.1,5.9,5.9,0,0,1-1.4-.2l-1.3-.3a12.13,12.13,0,0,1-1.4-.5v8.8H45.3Zm11.1-5.4a7.63,7.63,0,0,0-2.7.5,8.84,8.84,0,0,0-2.3,1.4,7,7,0,0,0-1.6,1.9,6,6,0,0,0-.8,2.1v11a6.59,6.59,0,0,0,2.4,1.1,11.61,11.61,0,0,0,3.5.4,8,8,0,0,0,6.2-2.5c1.5-1.7,2.3-4.1,2.3-7.4a10.49,10.49,0,0,0-1.6-6.3C60.7,137,58.9,136.31,56.4,136.31Z"/><path class="cls-1" d="M94.2,154.41a11,11,0,0,1-2.1,1.4,15.67,15.67,0,0,1-2.6,1.2,13.65,13.65,0,0,1-2.9.7,15.53,15.53,0,0,1-3.1.3,13.64,13.64,0,0,1-5.1-.9,8.9,8.9,0,0,1-3.7-2.6,10.51,10.51,0,0,1-2.3-4,16.69,16.69,0,0,1-.8-5.2,18,18,0,0,1,.8-5.4,12.18,12.18,0,0,1,2.4-4,9.18,9.18,0,0,1,3.9-2.4,13.66,13.66,0,0,1,5.1-.8,17.52,17.52,0,0,1,4,.5,8.21,8.21,0,0,1,3.5,2,9,9,0,0,1,2.3,4.1,21.52,21.52,0,0,1,.6,6.7H75.6c0,2.9.8,5.1,2.3,6.5a9,9,0,0,0,6.2,2.1,11.53,11.53,0,0,0,2.6-.3c.8-.2,1.7-.5,2.4-.7a7.45,7.45,0,0,0,2-1c.6-.4,1-.7,1.4-1Zm-10.1-18.5a13.86,13.86,0,0,0-3,.3,7.07,7.07,0,0,0-2.5,1.1,6.25,6.25,0,0,0-1.8,2.1,7.53,7.53,0,0,0-.9,3.2h15a7.37,7.37,0,0,0-2-4.9A6.81,6.81,0,0,0,84.1,135.91Z"/><path class="cls-1" d="M101.5,141.71v-1.1a6.6,6.6,0,0,0-.1-1.4c0-.5-.1-1-.1-1.5a5.07,5.07,0,0,0-.2-1.3H97.9v-3.1h6.5l.4,3.9h.2a6.1,6.1,0,0,1,1.3-1.6,9.35,9.35,0,0,1,1.9-1.4,10.76,10.76,0,0,1,5.2-1.4,14.79,14.79,0,0,1,3.9.5,5.75,5.75,0,0,1,2.8,1.7,7.37,7.37,0,0,1,1.7,3.3,19.84,19.84,0,0,1,.6,5.3v13.8h-3.8v-13.1c0-2.7-.4-4.7-1.3-6s-2.4-2-4.7-2a6.87,6.87,0,0,0-2.4.5,7.43,7.43,0,0,0-2.1,1.3,10.46,10.46,0,0,0-1.7,1.9,9.73,9.73,0,0,0-1.1,2.3v15.1h-3.7v-15.7Z"/><path class="cls-1" d="M185.6,141.71v-1.1a6.6,6.6,0,0,0-.1-1.4c0-.5-.1-1-.1-1.5a5.07,5.07,0,0,0-.2-1.3H182v-3.1h6.5l.4,3.9h.2a6.1,6.1,0,0,1,1.3-1.6,9.35,9.35,0,0,1,1.9-1.4,10.76,10.76,0,0,1,5.2-1.4,14.79,14.79,0,0,1,3.9.5,5.75,5.75,0,0,1,2.8,1.7,7.37,7.37,0,0,1,1.7,3.3,19.84,19.84,0,0,1,.6,5.3v13.8h-3.8v-13.1c0-2.7-.4-4.7-1.3-6s-2.4-2-4.7-2a6.87,6.87,0,0,0-2.4.5,7.43,7.43,0,0,0-2.1,1.3,10.46,10.46,0,0,0-1.7,1.9,9.73,9.73,0,0,0-1.1,2.3v15.1h-3.7v-15.7Z"/><path class="cls-1" d="M234.8,154.41a11,11,0,0,1-2.1,1.4,15.67,15.67,0,0,1-2.6,1.2,13.65,13.65,0,0,1-2.9.7,15.53,15.53,0,0,1-3.1.3,13.64,13.64,0,0,1-5.1-.9,8.9,8.9,0,0,1-3.7-2.6,10.51,10.51,0,0,1-2.3-4,16.69,16.69,0,0,1-.8-5.2,18,18,0,0,1,.8-5.4,12.18,12.18,0,0,1,2.4-4,9.18,9.18,0,0,1,3.9-2.4,13.66,13.66,0,0,1,5.1-.8,18.25,18.25,0,0,1,4,.5,8.21,8.21,0,0,1,3.5,2,9,9,0,0,1,2.3,4.1,21.52,21.52,0,0,1,.6,6.7H216.2c0,2.9.8,5.1,2.3,6.5a9,9,0,0,0,6.2,2.1,11.53,11.53,0,0,0,2.6-.3c.8-.2,1.7-.5,2.4-.7a7.45,7.45,0,0,0,2-1c.6-.4,1-.7,1.4-1Zm-10.1-18.5a13.86,13.86,0,0,0-3,.3,7.07,7.07,0,0,0-2.5,1.1,6.25,6.25,0,0,0-1.8,2.1,7.53,7.53,0,0,0-.9,3.2h15a7.37,7.37,0,0,0-2-4.9A6.81,6.81,0,0,0,224.7,135.91Z"/><path class="cls-1" d="M262.8,154.31c-.1-.4-.1-.8-.2-1.2s-.1-.9-.2-1.4-.1-.9-.1-1.4v-26.6h-3.8v10.1a5,5,0,0,1-1.3-.4c-.4-.1-.8-.2-1.3-.3a6.62,6.62,0,0,0-1.5-.1h-1.8a16.52,16.52,0,0,0-5.1.8,9.83,9.83,0,0,0-3.9,2.4,9.73,9.73,0,0,0-2.5,3.9,15.29,15.29,0,0,0-.9,5.4c0,4.3.9,7.5,2.6,9.5s4.4,3.1,8,3.1a9.5,9.5,0,0,0,4.8-1.2,8.66,8.66,0,0,0,3.2-3.1h.2l.5,3.7H266v-3.1h-3.2Zm-4.4-5.6a8.72,8.72,0,0,1-2.3,4.6,6.7,6.7,0,0,1-4.6,1.5,7.12,7.12,0,0,1-3.4-.7,5.32,5.32,0,0,1-2.2-2,6.77,6.77,0,0,1-1.2-3,21,21,0,0,1-.4-3.7c0-3.2.7-5.6,2.2-7.1a8.16,8.16,0,0,1,6.1-2.2,16.87,16.87,0,0,1,3.5.3,6.59,6.59,0,0,1,2.4,1.1v11.2Z"/><path class="cls-1" d="M159.9,157.41v-3.2h8.4v-17.7h-8.4v-3.2h12.2v20.9h8.2v3.2Zm13.4-30.6-3.2-3.2-3.2,3.2,3.2,3.2Z"/><path class="cls-1" d="M149.9,123.61l-8.1,12.9-8.1-12.9H130v33.8h3.9v-25.9l6.4,9.9a1.78,1.78,0,0,0,3,0l6.4-9.9v25.9h3.9v-33.8Z"/><path class="cls-2" d="M137.3,16.91l-13.4,23.2,18-10.4h0L170.2,58h0l-23.8-41.1A5.26,5.26,0,0,0,137.3,16.91Z"/><path class="cls-3" d="M159.8,40.11l10.4,18h0l-28.3,28.3h0L183,62.61a5.26,5.26,0,0,0,0-9.1Z"/><path class="cls-4" d="M113.5,58l28.3-28.3h0l-41.1,23.8a5.26,5.26,0,0,0,0,9.1L123.9,76,113.5,58Z"/><path class="cls-5" d="M141.8,86.41h0l-28.3-28.3h0l23.8,41.1a5.26,5.26,0,0,0,9.1,0L159.8,76Z"/><polygon class="cls-6" points="141.8 58.11 158.8 58.11 141.8 41.11 141.8 58.11"/><polygon class="cls-7" points="141.8 58.11 124.8 58.11 141.8 75.01 141.8 58.11"/><polygon class="cls-8" points="141.8 58.11 141.8 75.01 158.8 58.11 141.8 58.11"/><polygon class="cls-9" points="141.8 58.11 141.8 41.11 124.8 58.11 141.8 58.11"/></g></svg>